<svg width="232" height="24" viewBox="0 0 232 24" fill="none" xmlns="http://www.w3.org/2000/svg">
<g clip-path="url(#clip0)">
<path d="M30.8036 16.3702C30.8079 17.3603 30.5861 18.338 30.1556 19.2261C29.7252 20.1143 29.0979 20.8887 28.3231 21.4883C26.5301 22.9241 24.2923 23.6622 22.012 23.5702H1.87152V19.4344H18.4723C19.4467 19.4667 20.4133 19.2478 21.2821 18.7981C21.6633 18.6252 21.988 18.3454 22.2184 17.9915C22.4487 17.6376 22.5751 17.2243 22.5828 16.7999C22.5828 14.8241 20.8742 13.8362 17.4571 13.8362H9.0771C6.83596 13.8835 4.63158 13.2521 2.74409 12.0223C0.914802 10.813 0.000155435 9.27249 0.000155435 7.40087C-0.00701019 6.40292 0.233685 5.41929 0.699926 4.54116C1.16617 3.66304 1.84286 2.91886 2.66726 2.37761C4.43802 1.07528 6.77768 0.425982 9.68626 0.429703H28.9322V4.40366H11.9637C11.1385 4.42451 10.3381 4.69457 9.66431 5.17947C9.33177 5.35483 9.05001 5.61546 8.84692 5.93556C8.64382 6.25567 8.52643 6.62417 8.50636 7.00459C8.50956 7.40308 8.61189 7.79426 8.8038 8.14169C8.99572 8.48912 9.27098 8.78149 9.60394 8.99156C10.3979 9.54775 11.3459 9.83131 12.3095 9.80087H21.5675C24.4432 9.80087 26.7005 10.3999 28.3396 11.5981C29.1109 12.1195 29.7408 12.8298 30.1714 13.6637C30.602 14.4977 30.8194 15.4284 30.8036 16.3702Z" fill="white"/>
<path d="M38.4594 23.5702H32.1538V0.429688H38.4594V23.5702ZM58.7206 0.429688L46.0985 11.8325L58.3474 23.5534H49.49L38.6624 11.8046L49.8961 0.429688H58.7206Z" fill="white"/>
<path d="M105.071 0.429688H98.1124L87.5866 21.2874L76.545 0.429688H69.5864L57.9082 23.5702H64.9491L67.501 18.3069H79.2615L81.6597 23.5702H93.4642L96.038 18.3069H107.793L110.197 23.5702H117.331L105.071 0.429688ZM69.4657 14.2715L73.2084 6.13945L77.0499 14.2883L69.4657 14.2715ZM98.0026 14.2715L101.734 6.13945L105.576 14.2883L98.0026 14.2715Z" fill="white"/>
<path d="M147.997 23.5702H139.941L132.56 14.5116H124.877V23.5702H118.127V0.429757H138.981C140.053 0.392063 141.122 0.569852 142.127 0.952944C143.132 1.33604 144.053 1.91691 144.836 2.66231C145.569 3.32232 146.155 4.13364 146.556 5.04217C146.956 5.9507 147.161 6.93558 147.158 7.93115C147.158 8.72314 146.979 9.50455 146.633 10.2143C146.288 10.924 145.785 11.5428 145.166 12.0223C143.713 13.198 141.962 13.9314 140.117 14.1377L147.997 23.5702ZM138.921 7.69673C138.928 7.18217 138.793 6.67578 138.531 6.23554C138.269 5.7953 137.891 5.439 137.439 5.20743C136.198 4.56906 134.816 4.26905 133.427 4.33673H124.883V10.7944H133.63C134.806 10.8163 135.972 10.5803 137.049 10.1023C138.297 9.53301 138.921 8.73115 138.921 7.69673Z" fill="white"/>
<path d="M176.276 23.5702H169.236V14.1711H156.213V23.5702H149.38V0.429688H156.213V10.0464H169.236V0.429688H176.276V23.5702Z" fill="white"/>
<path d="M209.319 11.9665C209.319 16.4763 207.786 19.7042 204.72 21.6502C202.225 23.2167 198.59 24 193.815 24C188.525 24 184.618 23.094 182.093 21.2819C179.327 19.2949 177.944 16.1023 177.944 11.7042C177.944 8.10605 179.179 5.2986 181.649 3.28186C184.334 1.09395 188.358 0 193.722 0C199.576 0 203.715 1.0493 206.141 3.14791C208.259 5.00837 209.319 7.94791 209.319 11.9665ZM202.075 11.8326C202.075 9.55535 201.411 7.7414 200.082 6.3907C198.59 4.90233 196.378 4.15814 193.448 4.15814C190.517 4.15814 188.348 4.96744 186.939 6.58605C185.679 8.03393 185.022 9.92325 185.106 11.8549C185.106 14.3553 185.594 16.2028 186.571 17.3972C187.925 19.0605 190.435 19.8902 194.101 19.8865C197.188 19.8865 199.358 19.0791 200.609 17.4642C201.586 16.1879 202.075 14.3107 202.075 11.8326Z" fill="white"/>
<path d="M232 15.1088C232.014 15.8242 231.951 16.5391 231.814 17.2409C231.651 17.8902 231.39 18.5098 231.04 19.0771C230.063 20.7962 228.407 22.0074 226.073 22.7106C223.698 23.3483 221.246 23.6378 218.791 23.5702H208.54V19.7971H217.655C218.733 19.829 219.811 19.741 220.871 19.5348C221.829 19.3149 222.704 18.8211 223.395 18.1115C223.832 17.7009 224.178 17.2006 224.41 16.6436C224.611 16.0883 224.708 15.4995 224.696 14.9078V0.429688H232.022L232 15.1088Z" fill="white"/>
</g>
<defs>
<clipPath id="clip0">
<rect width="232" height="24" fill="white"/>
</clipPath>
</defs>
</svg>
